<svg xmlns="http://www.w3.org/2000/svg" version="1.0" width="474.000000pt" height="98.000000pt" viewBox="0 0 474.000000 98.000000" preserveAspectRatio="xMidYMid meet">
<metadata fill="#ffffff">
Created by potrace 1.16, written by Peter Selinger 2001-2019
</metadata>
<g transform="translate(0.000000,98.000000) scale(0.100000,-0.100000)" fill="#ffffff" stroke="none">
<path d="M160 460 l0 -340 83 0 84 0 97 120 c53 66 100 120 104 120 4 0 39 -52 77 -116 37 -64 74 -118 80 -120 6 -3 53 -3 104 -2 l92 3 -116 188 c-63 103 -115 191 -115 196 0 5 49 69 110 143 60 73 110 136 110 141 0 4 -42 7 -92 7 l-93 0 -170 -215 -170 -215 -3 215 -2 215 -90 0 -90 0 0 -340z" fill="#ffffff"/>
<path d="M2210 460 l0 -340 90 0 90 0 0 120 0 120 198 2 197 3 3 78 3 77 -201 0 -200 0 0 65 0 65 210 0 210 0 0 75 0 75 -300 0 -300 0 0 -340z" fill="#ffffff"/>
<path d="M4242 696 c-33 -71 -35 -73 -88 -91 -54 -18 -54 -19 -54 -59 l0 -41 -19 31 c-74 121 -357 155 -499 61 -57 -39 -77 -86 -62 -150 18 -83 89 -118 281 -136 123 -12 139 -17 139 -42 0 -61 -192 -60 -244 2 -24 28 -28 29 -112 29 l-86 0 6 -32 c22 -115 204 -188 397 -160 166 24 240 104 206 222 -23 79 -76 102 -271 120 -119 11 -146 19 -146 46 0 23 50 36 124 32 60 -3 71 -7 92 -31 22 -26 28 -27 113 -27 76 0 89 2 85 15 -5 12 4 15 50 15 l56 0 0 -123 c0 -107 3 -128 23 -167 26 -54 70 -85 138 -99 62 -13 119 -13 184 2 l50 12 3 69 3 69 -28 -7 c-65 -16 -124 -18 -152 -6 -39 16 -51 53 -51 161 l0 89 110 0 110 0 0 70 0 70 -110 0 -110 0 0 65 0 65 -52 0 -53 -1 -33 -73z" fill="#ffffff"/>
<path d="M991 636 c-53 -19 -107 -71 -136 -131 -25 -50 -27 -63 -23 -143 5 -99 19 -134 80 -192 93 -91 249 -91 348 0 24 22 45 40 46 40 2 0 4 -19 6 -43 l3 -42 93 -3 94 -3 -6 28 c-22 114 -28 231 -17 331 7 59 14 120 17 135 l6 28 -94 -3 -93 -3 -5 -48 -5 -49 -30 32 c-65 70 -192 100 -284 66z m243 -160 c20 -15 45 -44 56 -65 l19 -38 -28 -45 c-37 -59 -104 -93 -164 -85 -91 12 -138 119 -91 209 33 64 140 76 208 24z" fill="#ffffff"/>
<path d="M2981 636 c-53 -19 -107 -71 -136 -131 -25 -50 -27 -63 -23 -143 3 -73 9 -96 30 -134 83 -141 277 -169 398 -58 24 22 45 40 46 40 2 0 4 -19 6 -43 l3 -42 94 -3 c93 -3 93 -3 88 20 -3 13 -11 71 -17 130 -12 102 -7 196 17 336 l5 33 -93 -3 -94 -3 -3 -48 -3 -48 -41 36 c-58 53 -112 75 -183 74 -33 0 -75 -6 -94 -13z m243 -160 c20 -15 45 -44 56 -65 l19 -38 -28 -45 c-37 -59 -104 -93 -164 -85 -91 12 -138 119 -91 209 33 64 140 76 208 24z" fill="#ffffff"/>
<path d="M1542 458 c4 -207 15 -247 81 -305 85 -75 246 -62 320 26 27 32 37 31 37 -5 0 -50 7 -54 96 -54 96 0 91 -8 69 107 -10 50 -15 138 -15 246 l0 167 -85 0 c-47 0 -85 -3 -86 -7 0 -5 -4 -79 -7 -166 l-7 -159 -33 -29 c-26 -23 -42 -29 -78 -29 -99 0 -114 32 -114 240 l0 150 -91 0 -91 0 4 -182z" fill="#ffffff"/>
</g>
</svg>