<?xml version="1.0" encoding="UTF-8"?>
<svg xmlns="http://www.w3.org/2000/svg" xmlns:xlink="http://www.w3.org/1999/xlink" width="116px" height="24px" viewBox="0 0 116 24" version="1.1">
<g id="surface1">
<path style=" stroke:none;fill-rule:nonzero;fill:rgb(0%,0%,0%);fill-opacity:1;" d="M 3.914062 12.683594 L 3.914062 20.976562 L 7.996094 20.976562 L 10.367188 18.046875 C 11.664062 16.4375 12.8125 15.121094 12.910156 15.121094 C 13.007812 15.121094 13.863281 16.390625 14.792969 17.953125 C 15.699219 19.511719 16.601562 20.828125 16.75 20.878906 C 16.894531 20.953125 18.046875 20.953125 19.292969 20.925781 L 21.542969 20.855469 L 18.707031 16.269531 C 17.164062 13.757812 15.894531 11.609375 15.894531 11.488281 C 15.894531 11.367188 17.09375 9.804688 18.582031 8 C 20.050781 6.21875 21.273438 4.683594 21.273438 4.5625 C 21.273438 4.464844 20.246094 4.390625 19.023438 4.390625 L 16.75 4.390625 L 12.59375 9.632812 L 8.4375 14.878906 L 8.363281 9.632812 L 8.3125 4.390625 L 3.914062 4.390625 Z M 3.914062 12.683594 "/>
<path style=" stroke:none;fill-rule:nonzero;fill:rgb(0%,0%,0%);fill-opacity:1;" d="M 54.039062 12.683594 L 54.039062 20.976562 L 58.441406 20.976562 L 58.441406 15.121094 L 63.28125 15.074219 L 68.097656 15 L 68.171875 13.097656 L 68.246094 11.21875 L 58.441406 11.21875 L 58.441406 8.046875 L 68.710938 8.046875 L 68.710938 4.390625 L 54.039062 4.390625 Z M 54.039062 12.683594 "/>
<path style=" stroke:none;fill-rule:nonzero;fill:rgb(0%,0%,0%);fill-opacity:1;" d="M 103.726562 6.925781 C 102.917969 8.660156 102.871094 8.707031 101.574219 9.144531 C 100.253906 9.585938 100.253906 9.609375 100.253906 10.585938 L 100.253906 11.585938 L 99.789062 10.828125 C 97.980469 7.878906 91.058594 7.046875 87.585938 9.339844 C 86.191406 10.292969 85.703125 11.4375 86.070312 13 C 86.511719 15.023438 88.246094 15.878906 92.941406 16.316406 C 95.949219 16.609375 96.339844 16.730469 96.339844 17.339844 C 96.339844 18.828125 91.644531 18.804688 90.375 17.292969 C 89.789062 16.609375 89.691406 16.585938 87.636719 16.585938 L 85.53125 16.585938 L 85.679688 17.367188 C 86.21875 20.171875 90.667969 21.953125 95.386719 21.269531 C 99.445312 20.683594 101.253906 18.730469 100.425781 15.855469 C 99.863281 13.925781 98.566406 13.367188 93.796875 12.925781 C 90.886719 12.660156 90.226562 12.464844 90.226562 11.804688 C 90.226562 11.242188 91.449219 10.925781 93.257812 11.023438 C 94.726562 11.097656 94.996094 11.195312 95.507812 11.78125 C 96.046875 12.414062 96.195312 12.4375 98.273438 12.4375 C 100.128906 12.4375 100.449219 12.390625 100.351562 12.074219 C 100.226562 11.78125 100.449219 11.707031 101.574219 11.707031 L 102.941406 11.707031 L 102.941406 14.707031 C 102.941406 17.316406 103.015625 17.828125 103.503906 18.78125 C 104.140625 20.097656 105.214844 20.855469 106.878906 21.195312 C 108.394531 21.511719 109.789062 21.511719 111.378906 21.144531 L 112.601562 20.855469 L 112.675781 19.171875 L 112.746094 17.488281 L 112.0625 17.660156 C 110.472656 18.046875 109.03125 18.097656 108.347656 17.804688 C 107.394531 17.414062 107.097656 16.511719 107.097656 13.878906 L 107.097656 11.707031 L 112.480469 11.707031 L 112.480469 8.292969 L 107.097656 8.292969 L 107.097656 5.121094 L 105.828125 5.121094 L 104.53125 5.144531 Z M 103.726562 6.925781 "/>
<path style=" stroke:none;fill-rule:nonzero;fill:rgb(0%,0%,0%);fill-opacity:1;" d="M 24.230469 8.390625 C 22.9375 8.855469 21.617188 10.121094 20.90625 11.585938 C 20.296875 12.804688 20.246094 13.121094 20.34375 15.074219 C 20.464844 17.488281 20.808594 18.339844 22.300781 19.757812 C 24.574219 21.976562 28.390625 21.976562 30.808594 19.757812 C 31.394531 19.21875 31.910156 18.78125 31.933594 18.78125 C 31.984375 18.78125 32.03125 19.242188 32.082031 19.828125 L 32.15625 20.855469 L 34.429688 20.925781 L 36.726562 21 L 36.582031 20.316406 C 36.042969 17.535156 35.894531 14.683594 36.164062 12.242188 C 36.335938 10.804688 36.507812 9.316406 36.582031 8.953125 L 36.726562 8.269531 L 34.429688 8.339844 L 32.15625 8.414062 L 32.03125 9.585938 L 31.910156 10.78125 L 31.175781 10 C 29.585938 8.292969 26.480469 7.5625 24.230469 8.390625 Z M 30.171875 12.292969 C 30.664062 12.660156 31.273438 13.367188 31.542969 13.878906 L 32.007812 14.804688 L 31.324219 15.902344 C 30.417969 17.339844 28.78125 18.171875 27.3125 17.976562 C 25.085938 17.683594 23.9375 15.074219 25.085938 12.878906 C 25.894531 11.316406 28.511719 11.023438 30.171875 12.292969 Z M 30.171875 12.292969 "/>
<path style=" stroke:none;fill-rule:nonzero;fill:rgb(0%,0%,0%);fill-opacity:1;" d="M 72.890625 8.390625 C 71.59375 8.855469 70.273438 10.121094 69.566406 11.585938 C 68.953125 12.804688 68.90625 13.121094 69.003906 15.074219 C 69.078125 16.855469 69.222656 17.414062 69.738281 18.339844 C 71.765625 21.78125 76.511719 22.464844 79.46875 19.757812 C 80.054688 19.21875 80.570312 18.78125 80.59375 18.78125 C 80.640625 18.78125 80.691406 19.242188 80.742188 19.828125 L 80.8125 20.855469 L 83.113281 20.925781 C 85.386719 21 85.386719 21 85.265625 20.4375 C 85.191406 20.121094 84.996094 18.707031 84.847656 17.269531 C 84.554688 14.78125 84.675781 12.488281 85.265625 9.074219 L 85.386719 8.269531 L 83.113281 8.339844 L 80.8125 8.414062 L 80.742188 9.585938 L 80.667969 10.757812 L 79.664062 9.878906 C 78.246094 8.585938 76.925781 8.046875 75.191406 8.074219 C 74.382812 8.074219 73.355469 8.21875 72.890625 8.390625 Z M 78.832031 12.292969 C 79.320312 12.660156 79.933594 13.367188 80.203125 13.878906 L 80.667969 14.804688 L 79.980469 15.902344 C 79.078125 17.339844 77.4375 18.171875 75.972656 17.976562 C 73.746094 17.683594 72.597656 15.074219 73.746094 12.878906 C 74.554688 11.316406 77.171875 11.023438 78.832031 12.292969 Z M 78.832031 12.292969 "/>
<path style=" stroke:none;fill-rule:nonzero;fill:rgb(0%,0%,0%);fill-opacity:1;" d="M 37.703125 12.730469 C 37.800781 17.78125 38.070312 18.757812 39.683594 20.171875 C 41.765625 22 45.699219 21.683594 47.511719 19.535156 C 48.171875 18.757812 48.414062 18.78125 48.414062 19.660156 C 48.414062 20.878906 48.585938 20.976562 50.761719 20.976562 C 53.109375 20.976562 52.988281 21.171875 52.449219 18.367188 C 52.203125 17.144531 52.082031 15 52.082031 12.367188 L 52.082031 8.292969 L 50.003906 8.292969 C 48.855469 8.292969 47.925781 8.367188 47.902344 8.464844 C 47.902344 8.585938 47.804688 10.390625 47.730469 12.511719 L 47.558594 16.390625 L 46.753906 17.097656 C 46.117188 17.660156 45.726562 17.804688 44.84375 17.804688 C 42.425781 17.804688 42.058594 17.023438 42.058594 11.953125 L 42.058594 8.292969 L 37.605469 8.292969 Z M 37.703125 12.730469 "/>
</g>
</svg>
